<svg height="477pt" viewBox="0 -62 477.00113 477" width="477pt" xmlns="http://www.w3.org/2000/svg"><path d="m370 114.921875v200.6875c-.011719 20.429687-16.570312 36.992187-37 37h-296c-8.433594.011719-16.617188-2.871094-23.179688-8.167969-3.347656-2.691406-6.207031-5.945312-8.445312-9.609375-3.523438-5.792969-5.3828125-12.441406-5.375-19.222656v-200.546875l161.144531 136.449219c13.804688 11.691406 34.042969 11.683593 47.839844-.019531zm0 0" fill="#e48e66"/><path d="m370 114.753906v.167969l-161.015625 136.566406c-13.796875 11.703125-34.035156 11.710938-47.839844.019531l-161.144531-136.445312v-.308594c0-20.433594 16.566406-37 37-37h296c20.433594 0 37 16.566406 37 37zm0 0" fill="#f8ec7d"/><path d="m364.605469 334.859375c-2.238281 3.667969-5.097657 6.914063-8.453125 9.601563-.410156-.253907-.785156-.554688-1.117188-.902344l-92.59375-94.210938c-2.457031-2.554687-2.402344-6.613281.128906-9.101562 2.527344-2.488282 6.585938-2.480469 9.101563.019531l92.59375 94.210937c.121094.125.234375.253907.339844.382813zm0 0" fill="#af593c"/><path d="m107.042969 249.335938-92.085938 94.179687c-.339843.355469-.722656.664063-1.136719.925781-3.347656-2.691406-6.207031-5.945312-8.445312-9.609375.097656-.128906.210938-.242187.324219-.359375l92.082031-94.183594c1.609375-1.6875 4-2.375 6.261719-1.808593 2.257812.570312 4.039062 2.308593 4.660156 4.554687s-.015625 4.652344-1.660156 6.300782zm0 0" fill="#af593c"/><path d="m475.398438 52.410156c9.101562 46.890625-19.859376 109.511719-105.648438 144.261719-1.761719.730469-3.746094.730469-5.511719 0-23.136719-9.179687-42.167969-20.492187-57.417969-33.03125-31.378906-25.808594-46.820312-56.859375-49.421874-85.5-.808594-8.589844-.40625-17.25 1.191406-25.730469 6.070312-32 28.410156-52.410156 57.378906-52.410156 16.269531 0 33.652344 6.621094 51.03125 19.582031 17.101562-12.410156 34.75-19.03125 50.75-19.03125 28.960938 0 51.300781 20.410157 57.648438 51.859375zm0 0" fill="#6fe3ff"/></svg>