<svg height="409pt" viewBox="0 -13 409.60171 409" width="409pt" xmlns="http://www.w3.org/2000/svg"><path d="m402.769531 375.765625v-88.75h-286.714843c-49.011719 0-88.753907 39.738281-88.753907 88.75z" fill="#61c5a8"/><path d="m409.601562 375.765625v-88.75c0-1.796875-.730468-3.550781-2.007812-4.828125-1.261719-1.257812-3.019531-1.992188-4.824219-1.992188h-286.714843c-52.789063 0-95.574219 42.78125-95.574219 95.570313 0 3.769531 3.054687 6.824219 6.820312 6.824219 3.777344 0 6.835938-3.054688 6.835938-6.824219 0-22.644531 9.15625-43.074219 23.992187-57.921875 14.847656-14.835938 35.277344-23.992188 57.925782-23.992188h279.890624v81.914063c0 3.769531 3.058594 6.824219 6.824219 6.824219 3.777344 0 6.832031-3.054688 6.832031-6.824219" fill="#54596e"/><path d="m116.050781 75.394531h40.960938v232.105469h-40.960938zm0 0" fill="#bfad88"/><path d="m157.011719 307.5v-6.824219h-34.132813v-218.460937h27.304688v225.285156h6.828125v-6.824219 6.824219h6.828125v-232.105469c0-1.800781-.730469-3.558593-2-4.832031-1.273438-1.269531-3.03125-1.996094-4.828125-1.996094h-40.957031c-1.796876 0-3.558594.726563-4.828126 1.996094-1.273437 1.273438-2 3.03125-2 4.832031v232.105469c0 1.824219.710938 3.535156 2 4.828125 1.289063 1.289063 3.003907 1.996094 4.828126 1.996094h40.957031c1.824219 0 3.539062-.707031 4.828125-1.996094 1.289062-1.292969 2-3.003906 2-4.828125zm0 0" fill="#54596e"/><path d="m54.613281 75.394531h184.316407v-68.265625h-184.316407l-47.789062 34.132813zm0 0" fill="#bfad88"/><g fill="#54596e"><path d="m54.613281 75.394531v6.824219h184.316407c1.824218 0 3.539062-.707031 4.828124-2 1.289063-1.289062 2-3 2-4.824219v-68.265625c0-1.800781-.726562-3.558594-1.996093-4.832031-1.273438-1.269531-3.03125-1.996094-4.828125-1.996094h-184.320313c-1.429687 0-2.804687.441407-3.96875 1.269531l-47.785156 34.132813c-1.804687 1.289063-2.859375 3.339844-2.859375 5.558594 0 2.210937 1.054688 4.261719 2.859375 5.550781l47.785156 34.136719c1.160157.824219 2.542969 1.269531 3.96875 1.269531v-6.824219l3.96875-5.558593-40.011719-28.578126 38.226563-27.308593h175.308594v54.613281l-177.492188.003906v6.828125l3.964844-5.558593zm0 0"/><path d="m211.625 41.261719h-40.960938c-3.769531 0-6.824218 3.050781-6.824218 6.824219 0 3.773437 3.054687 6.828124 6.824218 6.828124h40.960938c3.769531 0 6.828125-3.054687 6.828125-6.828124 0-3.773438-3.058594-6.824219-6.828125-6.824219"/><path d="m143.359375 20.78125h-40.960937c-3.769532 0-6.828126 3.054688-6.828126 6.828125 0 3.769531 3.058594 6.824219 6.828126 6.824219h40.960937c3.769531 0 6.824219-3.054688 6.824219-6.824219 0-3.773437-3.054688-6.828125-6.824219-6.828125"/><path d="m102.398438 41.261719h-34.132813c-3.769531 0-6.828125 3.050781-6.828125 6.824219 0 3.773437 3.058594 6.828124 6.828125 6.828124h34.132813c3.769531 0 6.828124-3.054687 6.828124-6.828124 0-3.773438-3.058593-6.824219-6.828124-6.824219"/><path d="m163.839844 34.433594h27.304687c3.769531 0 6.828125-3.054688 6.828125-6.824219 0-3.773437-3.058594-6.828125-6.828125-6.828125h-27.304687c-3.773438 0-6.828125 3.054688-6.828125 6.828125 0 3.769531 3.054687 6.824219 6.828125 6.824219"/></g><path d="m395.945312 225.585938c0-60.335938-48.894531-109.230469-109.230468-109.230469-60.320313 0-109.226563 48.894531-109.226563 109.230469 0 60.320312 48.90625 109.21875 109.226563 109.21875 60.335937 0 109.230468-48.898438 109.230468-109.21875" fill="#fff35f"/><path d="m395.945312 225.585938h6.824219c0-64.109376-51.953125-116.050782-116.054687-116.066407-64.09375.015625-116.050782 51.953125-116.050782 116.066407 0 64.097656 51.953126 116.039062 116.050782 116.039062 64.101562 0 116.054687-51.941406 116.054687-116.039062h-13.644531c-.011719 28.289062-11.460938 53.851562-30 72.40625-18.554688 18.527343-44.105469 29.976562-72.410156 29.988281-28.300782-.011719-53.851563-11.460938-72.40625-29.988281-18.539063-18.554688-29.988282-44.117188-29.988282-72.40625 0-28.316407 11.449219-53.867188 29.988282-72.417969 18.554687-18.542969 44.105468-29.980469 72.40625-29.992188 28.304687.011719 53.855468 11.449219 72.410156 29.992188 18.539062 18.550781 29.988281 44.101562 30 72.417969z" fill="#54596e"/><path d="m184.363281 222.628906c-.027343.984375-.042969 1.96875-.042969 2.953125 0 28.289063 11.449219 53.855469 29.988282 72.40625 18.554687 18.53125 44.105468 29.980469 72.40625 29.992188 28.304687-.011719 53.855468-11.460938 72.410156-29.992188 18.539062-18.550781 29.988281-44.117187 30-72.40625h6.820312-6.820312c0-.984375-.015625-1.96875-.042969-2.949219-15.429687 41.574219-55.410156 71.214844-102.363281 71.214844-46.957031.003906-86.925781-29.640625-102.355469-71.21875" fill="#e6dc61"/><path d="m179.480469 205.097656c-1.261719 6.644532-1.992188 13.476563-1.992188 20.488282 0 60.320312 48.90625 109.21875 109.226563 109.21875 60.335937 0 109.230468-48.898438 109.230468-109.21875h-6.820312c-.011719 28.289062-11.460938 53.851562-30 72.40625-18.554688 18.527343-44.105469 29.976562-72.410156 29.988281-28.300782-.011719-53.851563-11.460938-72.40625-29.988281-18.539063-18.554688-29.988282-44.117188-29.988282-72.40625 0-.988282.015626-1.972657.042969-2.953126-2.09375-5.640624-3.738281-11.503906-4.882812-17.535156m214.484375 0c-1.148438 6.03125-2.789063 11.898438-4.882813 17.535156.027344.980469.042969 1.964844.042969 2.953126h6.820312c0-7.011719-.730468-13.84375-1.980468-20.488282" fill="#54596e"/><path d="m246.605469 251.121094c8.976562 9.757812 23.648437 15.359375 40.113281 15.417968 16.304688-.054687 30.84375-5.554687 39.847656-15.128906 2.5625-2.761718 2.402344-7.082031-.359375-9.644531s-7.078125-2.402344-9.640625.359375c-5.4375 5.96875-16.710937 10.816406-29.847656 10.765625-13.265625.054687-24.632812-4.902344-30.003906-10.945313-2.535156-2.792968-6.855469-3-9.644532-.464843-2.792968 2.535156-3 6.855469-.464843 9.644531zm0 0" fill="#54596e"/><path d="m238.929688 177.792969c0 7.542969-6.109376 13.65625-13.652344 13.65625-7.539063 0-13.652344-6.113281-13.652344-13.65625 0-7.539063 6.113281-13.652344 13.652344-13.652344 7.542968 0 13.652344 6.113281 13.652344 13.652344zm0 0" fill="#54596e"/><path d="m361.8125 177.792969c0 7.542969-6.113281 13.65625-13.652344 13.65625-7.542968 0-13.65625-6.113281-13.65625-13.65625 0-7.539063 6.113282-13.652344 13.65625-13.652344 7.539063 0 13.652344 6.113281 13.652344 13.652344zm0 0" fill="#54596e"/><path d="m361.8125 218.753906c0 7.539063-6.113281 13.652344-13.652344 13.652344-7.542968 0-13.65625-6.113281-13.65625-13.652344 0-7.539062 6.113282-13.652344 13.65625-13.652344 7.539063 0 13.652344 6.113282 13.652344 13.652344zm0 0" fill="#ff927d"/><path d="m238.929688 218.753906c0 7.539063-6.109376 13.652344-13.652344 13.652344-7.539063 0-13.652344-6.113281-13.652344-13.652344 0-7.539062 6.113281-13.652344 13.652344-13.652344 7.542968 0 13.652344 6.113282 13.652344 13.652344zm0 0" fill="#ff927d"/></svg>